<svg width="16" height="18" viewBox="0 0 16 18" fill="none" xmlns="http://www.w3.org/2000/svg">
<path d="M12.6716 11.3094L12.6717 11.3094C13.2063 11.6111 14.0145 12.067 14.5681 12.6089C14.9143 12.9478 15.2433 13.3944 15.3031 13.9416C15.3667 14.5235 15.1129 15.0695 14.6036 15.5547C13.725 16.3917 12.6707 17.0625 11.307 17.0625H4.69328C3.32955 17.0625 2.27521 16.3917 1.39663 15.5547C0.887364 15.0695 0.633516 14.5235 0.697121 13.9416C0.756931 13.3944 1.08592 12.9478 1.43217 12.6089C1.9858 12.067 2.79393 11.6111 3.32854 11.3094L3.32858 11.3094C3.45056 11.2406 3.55831 11.1798 3.64553 11.1279C6.31107 9.54071 9.6892 9.54071 12.3547 11.1279C12.4419 11.1798 12.5497 11.2406 12.6716 11.3094Z" fill="#005474"/>
<path opacity="0.4" d="M4.0625 4.875C4.0625 2.70038 5.82538 0.9375 8 0.9375C10.1746 0.9375 11.9375 2.70038 11.9375 4.875C11.9375 7.04962 10.1746 8.8125 8 8.8125C5.82538 8.8125 4.0625 7.04962 4.0625 4.875Z" fill="#005474"/>
</svg>
