<svg width="18" height="18" viewBox="0 0 18 18" fill="none" xmlns="http://www.w3.org/2000/svg">
<path opacity="0.4" d="M4.53903 0.9375C5.21287 0.937479 5.77478 0.937461 6.22086 0.997435C6.69171 1.06074 7.11681 1.19999 7.45841 1.54159C7.80001 1.8832 7.93926 2.3083 8.00257 2.77914C8.06254 3.22522 8.06252 3.78713 8.0625 4.46098V4.46101V6.039V6.03902C8.06252 6.71287 8.06254 7.27478 8.00257 7.72086C7.93926 8.19171 7.80001 8.61681 7.45841 8.95841C7.11681 9.30001 6.69171 9.43926 6.22086 9.50257C5.77477 9.56254 5.21286 9.56252 4.539 9.5625H4.46101C3.78714 9.56252 3.22523 9.56254 2.77914 9.50257C2.3083 9.43926 1.8832 9.30001 1.54159 8.95841C1.19999 8.61681 1.06074 8.19171 0.997435 7.72086C0.937461 7.27478 0.937479 6.71287 0.9375 6.03902V6.039V4.461V4.46098C0.937479 3.78713 0.937461 3.22522 0.997435 2.77914C1.06074 2.3083 1.19999 1.8832 1.54159 1.54159C1.8832 1.19999 2.3083 1.06074 2.77914 0.997435C3.22522 0.937461 3.78713 0.937479 4.46098 0.9375H4.461H4.539H4.53903Z" fill="#005474"/>
<path d="M5.26895 11.4375C5.60229 11.4375 5.88057 11.4375 6.10902 11.4531C6.34685 11.4693 6.57149 11.5043 6.78929 11.5945C7.29466 11.8038 7.69617 12.2053 7.9055 12.7107C7.99571 12.9285 8.0307 13.1532 8.04692 13.391C8.06251 13.6194 8.06251 13.8977 8.0625 14.2311V14.2689C8.06251 14.6023 8.06251 14.8806 8.04692 15.109C8.0307 15.3468 7.99571 15.5715 7.9055 15.7893C7.69617 16.2947 7.29466 16.6962 6.78929 16.9055C6.57149 16.9957 6.34685 17.0307 6.10902 17.0469C5.88057 17.0625 5.60229 17.0625 5.26894 17.0625H3.73106C3.39771 17.0625 3.11944 17.0625 2.89098 17.0469C2.65315 17.0307 2.42851 16.9957 2.21072 16.9055C1.70535 16.6962 1.30383 16.2947 1.0945 15.7893C1.00429 15.5715 0.969304 15.3468 0.953078 15.109C0.93749 14.8806 0.937495 14.6023 0.9375 14.2689V14.2689V14.2311V14.2311C0.937495 13.8977 0.93749 13.6194 0.953078 13.391C0.969304 13.1532 1.00429 12.9285 1.0945 12.7107C1.30383 12.2053 1.70535 11.8038 2.21072 11.5945C2.42851 11.5043 2.65315 11.4693 2.89098 11.4531C3.11943 11.4375 3.39771 11.4375 3.73105 11.4375H3.73106H5.26894H5.26895Z" fill="#005474"/>
<path opacity="0.4" d="M13.539 8.4375C14.2129 8.43748 14.7748 8.43746 15.2209 8.49744C15.6917 8.56074 16.1168 8.69999 16.4584 9.04159C16.8 9.3832 16.9393 9.8083 17.0026 10.2791C17.0625 10.7252 17.0625 11.2871 17.0625 11.961V11.961V13.539V13.539C17.0625 14.2129 17.0625 14.7748 17.0026 15.2209C16.9393 15.6917 16.8 16.1168 16.4584 16.4584C16.1168 16.8 15.6917 16.9393 15.2209 17.0026C14.7748 17.0625 14.2129 17.0625 13.539 17.0625H13.461C12.7871 17.0625 12.2252 17.0625 11.7791 17.0026C11.3083 16.9393 10.8832 16.8 10.5416 16.4584C10.2 16.1168 10.0607 15.6917 9.99744 15.2209C9.93746 14.7748 9.93748 14.2129 9.9375 13.539V13.539V11.961V11.961C9.93748 11.2871 9.93746 10.7252 9.99744 10.2791C10.0607 9.8083 10.2 9.3832 10.5416 9.04159C10.8832 8.69999 11.3083 8.56074 11.7791 8.49744C12.2252 8.43746 12.7871 8.43748 13.461 8.4375H13.461H13.539H13.539Z" fill="#005474"/>
<path d="M14.2689 0.9375C14.6023 0.937495 14.8806 0.93749 15.109 0.953078C15.3468 0.969304 15.5715 1.00429 15.7893 1.0945C16.2947 1.30383 16.6962 1.70535 16.9055 2.21072C16.9957 2.42851 17.0307 2.65315 17.0469 2.89098C17.0625 3.11944 17.0625 3.39771 17.0625 3.73106V3.76894C17.0625 4.10229 17.0625 4.38057 17.0469 4.60902C17.0307 4.84685 16.9957 5.07149 16.9055 5.28929C16.6962 5.79466 16.2947 6.19617 15.7893 6.4055C15.5715 6.49571 15.3468 6.5307 15.109 6.54692C14.8806 6.56251 14.6023 6.56251 14.2689 6.5625H12.7311C12.3977 6.56251 12.1194 6.56251 11.891 6.54692C11.6532 6.5307 11.4285 6.49571 11.2107 6.4055C10.7053 6.19617 10.3038 5.79466 10.0945 5.28929C10.0043 5.07149 9.9693 4.84685 9.95308 4.60902C9.93749 4.38057 9.93749 4.10229 9.9375 3.76895V3.76894V3.73106V3.73105C9.93749 3.39771 9.93749 3.11943 9.95308 2.89098C9.9693 2.65315 10.0043 2.42851 10.0945 2.21072C10.3038 1.70535 10.7053 1.30383 11.2107 1.0945C11.4285 1.00429 11.6532 0.969304 11.891 0.953078C12.1194 0.93749 12.3977 0.937495 12.7311 0.9375H12.7311H14.2689H14.2689Z" fill="#005474"/>
</svg>
