<svg width="18" height="16" viewBox="0 0 18 16" fill="none" xmlns="http://www.w3.org/2000/svg">
<path opacity="0.4" d="M15.1738 0.6875C15.4335 0.687481 15.6689 0.687464 15.8625 0.706949C16.0701 0.727852 16.2963 0.77606 16.5047 0.918278C16.6727 1.03286 16.8121 1.18475 16.9116 1.36247C17.0356 1.58411 17.0621 1.81441 17.0625 2.02263C17.0629 2.21586 17.0393 2.4481 17.0135 2.70272L17.0135 2.70276C16.969 3.14199 16.9265 3.56234 16.8673 3.86078C16.8051 4.17449 16.7097 4.46301 16.5181 4.72134C16.3505 4.94742 16.1383 5.1369 15.8948 5.27856C15.6174 5.43996 15.3197 5.50439 14.9993 5.53414C14.6936 5.56252 14.3193 5.56251 13.8716 5.5625H13.8716L4.12844 5.5625H4.12843C3.68068 5.56251 3.30635 5.56252 3.0007 5.53414C2.68031 5.50439 2.38264 5.43996 2.10523 5.27856C1.86174 5.1369 1.64953 4.94742 1.48186 4.72134C1.29027 4.46301 1.19494 4.17449 1.13271 3.86078C1.07351 3.56232 1.03095 3.14201 0.986476 2.70274L0.986476 2.70274C0.960667 2.44811 0.937128 2.21587 0.937504 2.02263C0.93791 1.81441 0.964355 1.58411 1.08841 1.36247C1.18788 1.18475 1.32732 1.03286 1.49528 0.918278C1.70374 0.77606 1.92988 0.727852 2.13754 0.706949C2.3311 0.687464 2.56648 0.687481 2.82623 0.6875H2.82628L15.1737 0.6875H15.1738Z" fill="#005474"/>
<path fill-rule="evenodd" clip-rule="evenodd" d="M6.75 7.25C6.75 6.83579 7.08579 6.5 7.5 6.5L10.5 6.5C10.9142 6.5 11.25 6.83579 11.25 7.25C11.25 7.66421 10.9142 8 10.5 8H7.5C7.08579 8 6.75 7.66421 6.75 7.25Z" fill="#005474"/>
<path d="M1.71058 4.98242C1.69551 5.0404 1.6875 5.10119 1.6875 5.16383L1.6875 8.87167C1.68748 10.1865 1.68746 11.2471 1.80118 12.0814C1.91932 12.9481 2.17219 13.6782 2.75972 14.2577C3.34673 14.8368 4.08536 15.0855 4.96228 15.2018C5.80733 15.3139 6.88189 15.3139 8.2155 15.3138H9.78451C11.1181 15.3139 12.1927 15.3139 13.0377 15.2018C13.9146 15.0855 14.6533 14.8368 15.2403 14.2577C15.8278 13.6782 16.0807 12.9481 16.1988 12.0814C16.3125 11.2471 16.3125 10.1865 16.3125 8.87169V5.16383C16.3125 5.10119 16.3045 5.0404 16.2894 4.98242C16.1705 5.09662 16.0381 5.19654 15.8948 5.2799C15.6174 5.44129 15.3197 5.50572 14.9993 5.53547C14.9512 5.53993 14.9015 5.5437 14.85 5.54687L14.85 8.81842C14.85 10.1991 14.8484 11.1613 14.7495 11.8872C14.6535 12.5918 14.478 12.9643 14.2088 13.2298C13.9391 13.4958 13.5599 13.6696 12.8438 13.7646C12.1071 13.8623 11.1307 13.8638 9.73125 13.8638H8.26875C6.86932 13.8638 5.89294 13.8623 5.15618 13.7646C4.44007 13.6696 4.06091 13.4958 3.79121 13.2298C3.52203 12.9643 3.34654 12.5918 3.2505 11.8872C3.15157 11.1613 3.15 10.1991 3.15 8.81842L3.15 5.54687C3.09852 5.5437 3.04876 5.53993 3.0007 5.53547C2.68031 5.50572 2.38264 5.44129 2.10524 5.2799C1.96195 5.19654 1.8295 5.09661 1.71058 4.98242Z" fill="#005474"/>
</svg>
