<svg width="18" height="18" viewBox="0 0 18 18" fill="none" xmlns="http://www.w3.org/2000/svg">
<path opacity="0.4" d="M9.03844 1.3125C10.592 1.31249 11.8097 1.31249 12.7682 1.42891C13.7476 1.54789 14.5316 1.79558 15.1757 2.34575C15.3475 2.49247 15.5075 2.65247 15.6543 2.82426C16.2044 3.46842 16.4521 4.25236 16.5711 5.23184C16.6875 6.19032 16.6875 7.40798 16.6875 8.96156V9.03844C16.6875 10.592 16.6875 11.8097 16.5711 12.7682C16.4521 13.7476 16.2044 14.5316 15.6543 15.1757C15.5075 15.3475 15.3475 15.5075 15.1757 15.6543C14.5316 16.2044 13.7476 16.4521 12.7682 16.5711C11.8097 16.6875 10.592 16.6875 9.03844 16.6875H8.96156C7.40798 16.6875 6.19032 16.6875 5.23184 16.5711C4.25236 16.4521 3.46842 16.2044 2.82426 15.6543C2.65247 15.5075 2.49247 15.3475 2.34575 15.1757C1.79558 14.5316 1.54789 13.7476 1.42891 12.7682C1.31249 11.8097 1.31249 10.592 1.3125 9.03844V8.96156C1.31249 7.40798 1.31249 6.19032 1.42891 5.23184C1.54789 4.25236 1.79558 3.46842 2.34575 2.82426C2.49247 2.65247 2.65247 2.49247 2.82426 2.34575C3.46842 1.79558 4.25236 1.54789 5.23184 1.42891C6.19032 1.31249 7.40798 1.31249 8.96156 1.3125H9.03844Z" fill="#005474"/>
<path fill-rule="evenodd" clip-rule="evenodd" d="M9 4.6875C9.31066 4.6875 9.5625 4.93934 9.5625 5.25V5.56812C10.0239 5.64665 10.4475 5.8209 10.791 6.07283C11.2701 6.42412 11.625 6.95595 11.625 7.59584C11.625 7.9065 11.3732 8.15834 11.0625 8.15834C10.7518 8.15834 10.5 7.9065 10.5 7.59584C10.5 7.40049 10.3932 7.17614 10.1258 6.98007C9.85872 6.78424 9.46253 6.646 9 6.646C8.53747 6.646 8.14128 6.78424 7.87421 6.98007C7.60681 7.17614 7.5 7.40049 7.5 7.59584C7.5 7.86817 7.57923 7.99609 7.71917 8.08978C7.90729 8.21572 8.28586 8.32964 9 8.32964C9.78137 8.32964 10.479 8.43779 10.9934 8.77119C11.559 9.13775 11.8125 9.71323 11.8125 10.4045C11.8125 11.1579 11.443 11.7123 10.8793 12.0487C10.4981 12.2763 10.04 12.3994 9.5625 12.4505V12.75C9.5625 13.0607 9.31066 13.3125 9 13.3125C8.68934 13.3125 8.4375 13.0607 8.4375 12.75V12.4387C7.93395 12.365 7.47067 12.1931 7.09522 11.9407C6.58688 11.599 6.1875 11.0665 6.1875 10.4045C6.1875 10.0938 6.43934 9.84198 6.75 9.84198C7.06066 9.84198 7.3125 10.0938 7.3125 10.4045C7.3125 10.5777 7.4168 10.8014 7.7228 11.007C8.02528 11.2103 8.47517 11.3543 9 11.3543C9.57062 11.3543 10.0179 11.2528 10.3027 11.0828C10.5533 10.9331 10.6875 10.7313 10.6875 10.4045C10.6875 10.0155 10.566 9.8348 10.3816 9.71524C10.146 9.56254 9.71863 9.45464 9 9.45464C8.21414 9.45464 7.56146 9.33803 7.09333 9.02463C6.57702 8.67898 6.375 8.15876 6.375 7.59584C6.375 6.95595 6.72989 6.42412 7.20897 6.07283C7.55255 5.8209 7.97606 5.64665 8.4375 5.56812L8.4375 5.25C8.4375 4.93934 8.68934 4.6875 9 4.6875Z" fill="#005474"/>
</svg>
