<svg width="20" height="20" viewBox="0 0 20 20" fill="none" xmlns="http://www.w3.org/2000/svg">
<path opacity="0.4" fill-rule="evenodd" clip-rule="evenodd" d="M10.1607 2.22271C10.3138 2.65671 10.0862 3.13271 9.65219 3.28589L9.10005 3.48076C8.00771 3.86629 7.25405 4.1336 6.69233 4.40612C6.14968 4.66939 5.86289 4.90281 5.66732 5.17922C5.47176 5.45564 5.3471 5.80376 5.27944 6.4031C5.2094 7.0235 5.20817 7.82315 5.20817 8.98154V11.0186C5.20817 12.177 5.2094 12.9766 5.27944 13.597C5.3471 14.1964 5.47176 14.5445 5.66732 14.8209C5.86289 15.0973 6.14968 15.3307 6.69233 15.594C7.25405 15.8665 8.00771 16.1338 9.10005 16.5194L9.65219 16.7142C10.0862 16.8674 10.3138 17.3434 10.1607 17.7774C10.0075 18.2114 9.53149 18.4391 9.09749 18.2859L8.49974 18.0749C7.46401 17.7094 6.62105 17.4119 5.96483 17.0935C5.27995 16.7612 4.72339 16.3724 4.30676 15.7835C3.89012 15.1947 3.70868 14.5404 3.62329 13.784C3.54147 13.0592 3.54149 12.1653 3.5415 11.067V8.93316C3.54149 7.83481 3.54147 6.9409 3.62329 6.21614C3.70868 5.45972 3.89012 4.80547 4.30676 4.2166C4.72339 3.62773 5.27995 3.23889 5.96483 2.90661C6.62104 2.58824 7.464 2.29074 8.49973 1.92521L9.09749 1.71424C9.53149 1.56106 10.0075 1.78871 10.1607 2.22271Z" fill="#005474"/>
<path d="M8.95833 10.8381C8.4981 10.8381 8.125 10.465 8.125 10.0047C8.125 9.54448 8.4981 9.17139 8.95833 9.17139L14.375 9.17139L14.375 8.67617C14.3749 8.52981 14.3748 8.3501 14.3932 8.20306L14.3935 8.20028C14.4067 8.0949 14.4665 7.61487 14.9379 7.38623C15.4102 7.1571 15.827 7.40871 15.9172 7.46315L16.3076 7.74577C16.6208 7.99129 17.0495 8.32938 17.3753 8.6464C17.5379 8.80459 17.7056 8.98565 17.838 9.17807C17.9556 9.34912 18.125 9.64095 18.125 9.99984C18.125 10.3587 17.9556 10.6506 17.838 10.8216C17.7056 11.014 17.5379 11.1951 17.3753 11.3533C17.0495 11.6703 16.6208 12.0084 16.3076 12.2539L15.9172 12.5365C15.827 12.591 15.4102 12.8426 14.9379 12.6134C14.4665 12.3848 14.4067 11.9048 14.3935 11.7994L14.3932 11.7966C14.3748 11.6496 14.3749 11.4699 14.375 11.3235L14.375 10.8381L8.95833 10.8381Z" fill="#005474"/>
</svg>
