<svg width="18" height="18" viewBox="0 0 18 18" fill="none" xmlns="http://www.w3.org/2000/svg">
<path fill-rule="evenodd" clip-rule="evenodd" d="M3.24701 8.74759C3.38594 8.46973 3.72382 8.3571 4.00168 8.49603L5.50168 9.24603C5.77954 9.38496 5.89217 9.72284 5.75324 10.0007C5.61431 10.2786 5.27643 10.3912 4.99857 10.2523L3.49857 9.50226C3.2207 9.36333 3.10808 9.02545 3.24701 8.74759Z" fill="#005474"/>
<path fill-rule="evenodd" clip-rule="evenodd" d="M13.5 9.93652C11.5325 9.93652 9.9375 11.5315 9.9375 13.499C9.9375 15.4665 11.5325 17.0615 13.5 17.0615C15.4675 17.0615 17.0625 15.4665 17.0625 13.499C17.0625 11.5315 15.4675 9.93652 13.5 9.93652ZM14.7096 13.3497C15.0025 13.0568 15.0025 12.5819 14.7096 12.289C14.4167 11.9961 13.9418 11.9961 13.6489 12.289L12.9697 12.9682C12.6768 13.2611 12.6768 13.736 12.9697 14.0289C13.2626 14.3218 13.7374 14.3218 14.0303 14.0289L14.7096 13.3497Z" fill="#005474"/>
<path opacity="0.4" fill-rule="evenodd" clip-rule="evenodd" d="M13.5 8.81161C10.9112 8.81161 8.8125 10.9103 8.8125 13.4991C8.8125 14.6995 9.26372 15.7945 10.0058 16.6238C9.32468 16.8977 8.79954 17.0625 8.25 17.0625C7.52097 17.0625 6.83488 16.7724 5.7706 16.3225C4.35077 15.7227 3.06879 15.1812 2.305 14.7229C1.55051 14.2701 0.9375 13.7113 0.9375 12.871L0.9375 4.87498C0.9375 4.27813 1.36145 3.91173 1.69906 3.68847C2.03625 3.46549 2.51552 3.2385 3.05909 2.98104L5.39316 1.87525C6.56663 1.31863 7.37065 0.937256 8.25 0.937256C9.12935 0.937256 9.93337 1.31863 11.1068 1.87525L13.4409 2.98106C13.9845 3.2385 14.4638 3.4655 14.8009 3.68847C15.1385 3.91173 15.5625 4.27813 15.5625 4.87498V9.28857C14.9401 8.98312 14.2401 8.81161 13.5 8.81161ZM8.25006 2.36909C7.74777 2.36909 7.26358 2.57991 5.8819 3.23446L3.74577 4.24643C3.13775 4.53447 2.75683 4.71695 2.51807 4.87478C2.75683 5.0326 3.13775 5.21508 3.74577 5.50312L6.21396 6.67188C7.34566 7.20382 7.79028 7.38046 8.25006 7.38046C8.75234 7.38046 9.23653 7.16964 10.6182 6.51509L12.7543 5.50313C13.3624 5.21508 13.7433 5.0326 13.982 4.87478C13.7433 4.71695 13.3624 4.53447 12.7543 4.24643L10.2862 3.07767C9.15445 2.54574 8.70983 2.36909 8.25006 2.36909Z" fill="#005474"/>
<path d="M4.55127 5.88529L10.2859 3.07813L11.9483 3.86516L6.21371 6.67233L4.55127 5.88529Z" fill="#005474"/>
</svg>
