<svg width="18" height="18" viewBox="0 0 18 18" fill="none" xmlns="http://www.w3.org/2000/svg">
<path opacity="0.4" d="M7.70245 1.6834C8.19282 1.47637 8.58096 1.3125 9 1.3125C9.41905 1.3125 9.80718 1.47637 10.2976 1.6834L14.5344 3.46742L14.5345 3.46742C14.9565 3.6451 15.314 3.79564 15.5947 3.95136C15.8933 4.11703 16.1504 4.31219 16.3432 4.60255C16.536 4.89292 16.6161 5.20565 16.6529 5.54515C16.6875 5.86421 16.6875 6.25215 16.6875 6.71002V6.71008L16.6875 16.125C16.6875 16.4357 16.4357 16.6875 16.125 16.6875H14.625C14.3143 16.6875 14.0625 16.4357 14.0625 16.125L14.0625 8.625C14.0625 8.25554 14.0613 8.03504 14.0401 7.877C14.0188 7.71896 13.873 7.70994 13.873 7.70994C13.715 7.68869 13.4945 7.6875 13.125 7.6875L4.875 7.6875C4.50555 7.6875 4.28504 7.68869 4.127 7.70994C4.01007 7.72063 3.96691 7.82577 3.95994 7.877C3.9387 8.03504 3.9375 8.25554 3.9375 8.625L3.9375 16.125C3.9375 16.4357 3.68566 16.6875 3.375 16.6875H1.875C1.56434 16.6875 1.3125 16.4357 1.3125 16.125L1.3125 6.71009V6.71007C1.31249 6.25218 1.31247 5.86422 1.34708 5.54515C1.3839 5.20565 1.46397 4.89292 1.65677 4.60256C1.84956 4.31219 2.10671 4.11703 2.40532 3.95136C2.68596 3.79564 3.04353 3.6451 3.46556 3.46742L3.49255 3.45606L7.70245 1.6834Z" fill="#141B34"/>
<path fill-rule="evenodd" clip-rule="evenodd" d="M7.6875 4.875C7.6875 4.56434 7.93934 4.3125 8.25 4.3125L9.75 4.3125C10.0607 4.3125 10.3125 4.56434 10.3125 4.875C10.3125 5.18566 10.0607 5.4375 9.75 5.4375H8.25C7.93934 5.4375 7.6875 5.18566 7.6875 4.875Z" fill="#141B34"/>
<path d="M8.21644 11.0625L8.25001 11.0625H9.75001L9.78357 11.0625C10.1082 11.0625 10.4058 11.0624 10.6479 11.095C10.9145 11.1308 11.1963 11.2152 11.4281 11.4469C11.6599 11.6787 11.7442 11.9605 11.78 12.2271C11.8126 12.4692 11.8125 12.7668 11.8125 13.0914L11.8125 13.125V14.625L11.8125 14.6586C11.8125 14.9832 11.8126 15.2808 11.78 15.5229C11.7442 15.7895 11.6599 16.0713 11.4281 16.3031C11.1963 16.5349 10.9145 16.6192 10.6479 16.655C10.4058 16.6876 10.1082 16.6875 9.78356 16.6875L9.75001 16.6875H8.25001L8.21645 16.6875C7.89183 16.6875 7.59421 16.6876 7.3521 16.655C7.08549 16.6192 6.80369 16.5349 6.57193 16.3031C6.34016 16.0713 6.25582 15.7895 6.21998 15.5229C6.18743 15.2808 6.18746 14.9832 6.1875 14.6586L6.18751 14.625V13.125L6.1875 13.0914C6.18746 12.7668 6.18743 12.4692 6.21998 12.2271C6.25582 11.9605 6.34016 11.6787 6.57193 11.4469C6.8037 11.2152 7.08549 11.1308 7.3521 11.095C7.59421 11.0624 7.89183 11.0625 8.21644 11.0625Z" fill="#141B34"/>
</svg>
